<mxfile host="app.diagrams.net" modified="2023-01-27T11:00:12.373Z" agent="5.0 (Macintosh; Intel Mac OS X 10_15_7) AppleWebKit/537.36 (KHTML, like Gecko) Chrome/106.0.0.0 Safari/537.36" etag="zSBOrOaIOw_Yj-t6fZwQ" version="20.8.13" type="github">
  <diagram name="第 1 页" id="d-Dd-_Syq8GbyV6cUQf1">
    <mxGraphModel dx="1381" dy="703" grid="1" gridSize="10" guides="1" tooltips="1" connect="1" arrows="1" fold="1" page="1" pageScale="1" pageWidth="827" pageHeight="1169" math="0" shadow="0">
      <root>
        <mxCell id="0" />
        <mxCell id="1" parent="0" />
        <mxCell id="vztPke1aW9Hv-XeRsbyH-1" value="网关服务" style="rounded=0;whiteSpace=wrap;html=1;" vertex="1" parent="1">
          <mxGeometry x="359" y="60" width="120" height="60" as="geometry" />
        </mxCell>
        <mxCell id="vztPke1aW9Hv-XeRsbyH-2" value="资源部署" style="rounded=0;whiteSpace=wrap;html=1;" vertex="1" parent="1">
          <mxGeometry x="89" y="170" width="120" height="60" as="geometry" />
        </mxCell>
        <mxCell id="vztPke1aW9Hv-XeRsbyH-3" value="资源调度" style="rounded=0;whiteSpace=wrap;html=1;" vertex="1" parent="1">
          <mxGeometry x="269" y="170" width="120" height="60" as="geometry" />
        </mxCell>
        <mxCell id="vztPke1aW9Hv-XeRsbyH-4" value="......" style="rounded=0;whiteSpace=wrap;html=1;" vertex="1" parent="1">
          <mxGeometry x="619" y="170" width="120" height="60" as="geometry" />
        </mxCell>
        <mxCell id="vztPke1aW9Hv-XeRsbyH-5" value="配额管理" style="rounded=0;whiteSpace=wrap;html=1;" vertex="1" parent="1">
          <mxGeometry x="449" y="170" width="120" height="60" as="geometry" />
        </mxCell>
        <mxCell id="vztPke1aW9Hv-XeRsbyH-6" value="代理层" style="rounded=0;whiteSpace=wrap;html=1;" vertex="1" parent="1">
          <mxGeometry x="359" y="280" width="120" height="60" as="geometry" />
        </mxCell>
        <mxCell id="vztPke1aW9Hv-XeRsbyH-7" value="数据层" style="rounded=0;whiteSpace=wrap;html=1;" vertex="1" parent="1">
          <mxGeometry x="359" y="390" width="120" height="60" as="geometry" />
        </mxCell>
      </root>
    </mxGraphModel>
  </diagram>
</mxfile>
